<svg version="1.1" xmlns="http://www.w3.org/2000/svg" xmlns:xlink="http://www.w3.org/1999/xlink" width="800px" height="800px" viewBox="0,0,256,256"><g fill="#625d7b" fill-rule="evenodd" stroke="none" stroke-width="1" stroke-linecap="butt" stroke-linejoin="miter" stroke-miterlimit="10" stroke-dasharray="" stroke-dashoffset="0" font-family="none" font-weight="none" font-size="none" text-anchor="none" style="mix-blend-mode: normal"><g transform="scale(0.5,0.5)"><path d="M256,512c-141.375,0 -256,-114.625 -256,-256c0,-141.375 114.625,-256 256,-256c141.375,0 256,114.625 256,256c0,141.375 -114.625,256 -256,256zM256,64c-106.031,0 -192,85.969 -192,192c0,106.031 85.969,192 192,192c106.031,0 192,-85.969 192,-192c0,-106.031 -85.969,-192 -192,-192zM256,384c-70.69245,0 -128,-57.30755 -128,-128c0,-70.69245 57.30755,-128 128,-128c70.69245,0 128,57.30755 128,128c-0.00331,70.69108 -57.30892,127.99669 -128,128z" id="Path_111"></path></g></g></svg>