<?xml version="1.0"?>
<svg xmlns="http://www.w3.org/2000/svg" width="325" height="120" viewBox="0 0 60 34" fill="none">
<g clip-path="url(#clip0_921_23622)">
<path fill-rule="evenodd" clip-rule="evenodd" d="M44.0286 21.427L44.8019 19.8995H47.5961L48.3948 21.427H51.3687L46.2049 11.3293L41.0547 21.427H44.0286ZM45.2752 17.9665H47.1448L46.2049 15.8442L45.2752 17.9665ZM24.3246 15.3441C24.1263 15.7316 24.0272 16.1822 24.0272 16.6958C24.0272 17.2005 24.1263 17.6511 24.3246 18.0476C24.5229 18.4351 24.8022 18.7415 25.1627 18.9668C25.5232 19.1831 25.9467 19.2912 26.4334 19.2912C26.929 19.2912 27.3526 19.1831 27.704 18.9668C28.0645 18.7415 28.3439 18.4351 28.5421 18.0476C28.7404 17.6511 28.8395 17.2005 28.8395 16.6958C28.8395 16.1822 28.7449 15.7316 28.5556 15.3441C28.3664 14.9566 28.0915 14.6547 27.7311 14.4384C27.3796 14.2131 26.947 14.1005 26.4334 14.1005C25.9467 14.1005 25.5232 14.2131 25.1627 14.4384C24.8022 14.6547 24.5229 14.9566 24.3246 15.3441ZM21.6346 18.737C21.3823 18.1152 21.2561 17.4348 21.2561 16.6958C21.2561 15.9479 21.3868 15.272 21.6481 14.6682C21.9185 14.0554 22.288 13.5327 22.7566 13.1002C23.2252 12.6586 23.7704 12.3206 24.3922 12.0863C25.023 11.843 25.7034 11.7214 26.4334 11.7214C27.1813 11.7214 27.8662 11.843 28.488 12.0863C29.1189 12.3206 29.6686 12.6586 30.1372 13.1002C30.6058 13.5327 30.9663 14.0554 31.2186 14.6682C31.4799 15.272 31.6106 15.9479 31.6106 16.6958C31.6106 17.4348 31.4845 18.1152 31.2321 18.737C30.9798 19.3588 30.6238 19.8995 30.1642 20.3591C29.7046 20.8097 29.1549 21.1612 28.5151 21.4135C27.8843 21.6568 27.1903 21.7785 26.4334 21.7785C25.6764 21.7785 24.9825 21.6568 24.3516 21.4135C23.7208 21.1612 23.1711 20.8097 22.7025 20.3591C22.2429 19.8995 21.8869 19.3588 21.6346 18.737ZM37.0421 15.2765L38.7047 11.9647H41.7327L38.3803 17.6421V21.427H35.7038V17.6691L32.3379 11.9647H35.3659L37.0421 15.2765ZM59.4905 21.427H53.0426V11.9647H55.665V19.1966H59.4905V21.427ZM47.6704 30.6861L49.4547 29.3884C49.644 29.7218 49.8558 30.0102 50.0901 30.2535C50.3244 30.4878 50.5812 30.6681 50.8606 30.7942C51.1399 30.9204 51.4283 30.9835 51.7257 30.9835C52.0141 30.9835 52.2529 30.9204 52.4421 30.7942C52.6314 30.6591 52.726 30.4653 52.726 30.213C52.726 30.0327 52.6719 29.884 52.5638 29.7669C52.4557 29.6407 52.2664 29.5146 51.9961 29.3884C51.7347 29.2622 51.3652 29.109 50.8876 28.9288C50.6533 28.8387 50.392 28.7215 50.1036 28.5773C49.8152 28.4241 49.5359 28.2304 49.2655 27.9961C49.0042 27.7618 48.7834 27.4734 48.6031 27.131C48.4319 26.7885 48.3463 26.383 48.3463 25.9144C48.3463 25.3196 48.504 24.8194 48.8194 24.4139C49.1348 23.9994 49.5539 23.684 50.0766 23.4677C50.5992 23.2514 51.1805 23.1433 51.8203 23.1433C52.4872 23.1433 53.064 23.2514 53.5506 23.4677C54.0372 23.6749 54.4383 23.9408 54.7537 24.2652C55.0691 24.5806 55.3124 24.9005 55.4836 25.225L53.51 26.3199C53.3749 26.0946 53.2172 25.9099 53.0369 25.7657C52.8657 25.6125 52.681 25.4953 52.4827 25.4142C52.2844 25.3331 52.0817 25.2926 51.8744 25.2926C51.6131 25.2926 51.4058 25.3466 51.2526 25.4548C51.0994 25.5629 51.0228 25.7071 51.0228 25.8873C51.0228 26.0946 51.1084 26.2703 51.2796 26.4145C51.4599 26.5497 51.7032 26.6804 52.0096 26.8065C52.325 26.9237 52.6855 27.0544 53.091 27.1985C53.4425 27.3247 53.7624 27.4779 54.0507 27.6581C54.3481 27.8294 54.605 28.0366 54.8213 28.28C55.0375 28.5143 55.2043 28.7846 55.3214 29.091C55.4386 29.3974 55.4971 29.7399 55.4971 30.1184C55.4971 30.623 55.3935 31.0691 55.1862 31.4566C54.988 31.8441 54.7131 32.1685 54.3617 32.4299C54.0192 32.6822 53.6272 32.8714 53.1856 32.9976C52.744 33.1328 52.2935 33.2004 51.8339 33.2004C51.185 33.2004 50.5812 33.0877 50.0225 32.8624C49.4728 32.6462 48.9951 32.3488 48.5896 31.9703C48.1841 31.5828 47.8777 31.1547 47.6704 30.6861ZM28.3529 32.8489H24.3111H23.5811H21.7968V23.3866H23.5811H24.3111H28.3529V25.5088H24.3111V26.9012H28.0825V28.9558H24.3111V30.7266H28.3529V32.8489ZM37.4657 32.8489H33.4239H32.6939H30.9096V23.3866H32.6939H33.4239H37.4657V25.5088H33.4239V26.9012H37.1953V28.9558H33.4239V30.7266H37.4657V32.8489ZM40.0224 23.3866V32.8489H46.4703V30.6185H42.6448V23.3866H40.0224Z" fill="white"/>
<path fill-rule="evenodd" clip-rule="evenodd" d="M2.5336 12.1189C2.52784 11.9923 2.52051 11.86 2.50977 11.719C6.39613 11.2694 10.3312 11.5049 14.1363 12.4146C14.1327 12.4299 14.1291 12.4452 14.1256 12.4605C14.5925 12.5906 15.0243 12.7516 15.421 12.9435C16.671 13.5388 17.5937 14.3622 18.1889 15.4138C18.804 16.4456 19.1116 17.6461 19.1116 19.0152C19.1116 20.3644 18.804 21.5748 18.1889 22.6462C17.5937 23.6979 16.671 24.5213 15.421 25.1166C15.3358 25.1564 15.2491 25.1948 15.1607 25.2319L20.3616 32.8847H13.6352L9.54582 25.9797H8.30762V32.8847H2.5336V12.1189ZM8.30762 16.9318V21.6045H10.2422C10.8573 21.6045 11.3732 21.5153 11.7899 21.3367C12.2066 21.1581 12.524 20.8902 12.7423 20.5331C12.9804 20.1759 13.0995 19.7493 13.0995 19.2533C13.0995 18.7572 12.9804 18.3405 12.7423 18.0032C12.524 17.6461 12.2066 17.3782 11.7899 17.1996C11.3732 17.021 10.8573 16.9318 10.2422 16.9318H8.30762Z" fill="#FFC42D"/>
<path d="M14.4552 10.7732C14.357 11.1851 14.2843 11.5813 14.2843 11.5813C14.2843 11.5813 12.684 11.0144 8.39909 10.7599C4.1142 10.5053 2.45802 10.8787 2.45802 10.8787C2.45802 10.8787 2.43506 10.4793 2.38864 10.0613C6.42254 9.63095 10.4998 9.87151 14.4552 10.7732Z" fill="white"/>
<path d="M16.9125 5.58075C16.7521 6.62779 16.2698 8.37566 14.839 9.58803C14.7461 9.73029 14.6786 9.88756 14.6394 10.0529C10.6267 9.13576 6.48985 8.89 2.39685 9.32557C2.38273 9.14975 2.33085 8.97904 2.24475 8.8251C0.971554 7.46683 0.699652 5.67416 0.664259 4.61549C0.432863 4.49854 0.283675 3.9491 0.306221 3.56959C0.330513 3.16069 0.557399 3.10536 0.824286 3.12122C1.09117 3.13707 1.3105 3.20908 1.28562 3.62777C1.26511 3.97301 1.08724 4.44404 0.869958 4.58594C1.27849 5.98129 2.08727 7.17437 2.99344 7.3486C3.58392 7.45985 3.80385 6.4876 3.88562 5.81429C3.64819 5.67487 3.47349 5.14112 3.49531 4.77384C3.52019 4.35515 3.74722 4.29738 4.01411 4.31323C4.28099 4.32909 4.50032 4.40109 4.47472 4.83203C4.46584 5.16079 4.36151 5.47987 4.17444 5.75036C5.13828 7.80774 5.9153 8.1291 6.60333 8.16997C7.60967 8.22976 7.7631 6.68104 7.69678 6.30853C7.60372 5.82848 7.45063 5.36204 7.24114 4.9202C8.06493 3.58577 9.00426 1.46454 9.00426 1.46454C9.00426 1.46454 9.68584 3.68206 10.3186 5.10794C10.0584 5.52167 9.852 5.96684 9.70426 6.4327C9.60164 6.79518 9.56818 8.35102 10.5696 8.41051C11.2601 8.45153 12.055 8.22356 13.2679 6.29549C13.1142 6.00475 13.0484 5.67557 13.0785 5.34807C13.1033 4.92937 13.3304 4.8716 13.5973 4.88746C13.8641 4.90331 14.0835 4.97531 14.0579 5.40625C14.0361 5.77353 13.7921 6.2824 13.5471 6.39317C13.5486 7.07143 13.6543 8.06302 14.2514 8.02232C15.1718 7.9566 16.1161 6.86767 16.687 5.5305C16.4908 5.35913 16.3675 4.8702 16.3877 4.52986C16.4126 4.11116 16.6389 4.06564 16.9058 4.08149C17.1727 4.09735 17.392 4.16935 17.3671 4.58804C17.3693 4.96412 17.1464 5.49144 16.9125 5.58075ZM9.58911 5.06214C9.34617 4.47765 9.10358 3.80473 8.89938 3.22991C8.62064 3.78587 8.31002 4.42347 7.99758 4.9676C8.16424 5.37018 8.2876 5.78935 8.36558 6.21803C8.45258 6.407 8.56159 6.58502 8.69036 6.74841C8.8392 6.60289 8.9687 6.4388 9.07565 6.26022C9.20384 5.84378 9.37596 5.44217 9.58911 5.06214Z" fill="#FFC42D"/>
</g>
<defs>
<clipPath id="clip0_921_23622">
<rect width="59.4587" height="32.2344" fill="white" transform="translate(0 0.945312)"/>
</clipPath>
</defs>
</svg>
